<svg xmlns="http://www.w3.org/2000/svg" width="420" height="420" viewBox="0 0 420 420" role="img" aria-labelledby="title desc">
  <title id="title">Cere7te Finacial Logo</title>
  <desc id="desc">Monograma C7 con colores mexicanos para plataforma financiera.</desc>
  <defs>
    <linearGradient id="bg" x1="0" y1="0" x2="1" y2="1">
      <stop offset="0%" stop-color="#006847"/>
      <stop offset="55%" stop-color="#0f4b39"/>
      <stop offset="100%" stop-color="#ce1126"/>
    </linearGradient>
    <linearGradient id="stroke" x1="0" y1="0" x2="1" y2="0">
      <stop offset="0%" stop-color="#ffffff"/>
      <stop offset="100%" stop-color="#f1f1f1"/>
    </linearGradient>
    <filter id="shadow" x="-20%" y="-20%" width="140%" height="140%">
      <feDropShadow dx="0" dy="8" stdDeviation="8" flood-color="#000000" flood-opacity="0.35"/>
    </filter>
  </defs>

  <rect x="20" y="20" width="380" height="380" rx="96" fill="url(#bg)"/>
  <rect x="20" y="20" width="380" height="380" rx="96" fill="none" stroke="rgba(255,255,255,0.25)" stroke-width="2"/>

  <g filter="url(#shadow)">
    <path d="M132 210c0-54 37-92 95-92 30 0 54 8 72 23l-22 30c-14-10-28-15-45-15-31 0-52 21-52 54s21 54 52 54c19 0 34-5 48-17l20 31c-18 15-44 24-73 24-58 0-95-39-95-92z"
          fill="url(#stroke)"/>
    <path d="M213 134h95v26l-49 124h-44l45-111h-47z" fill="#ffffff"/>
  </g>

  <circle cx="334" cy="86" r="16" fill="#ffffff" opacity="0.85"/>
  <circle cx="334" cy="86" r="8" fill="#ce1126"/>
</svg>
